<?xml version="1.0" encoding="UTF-8" standalone="no"?>
<!-- Created with Inkscape (http://www.inkscape.org/) -->

<svg
   width="270mm"
   height="270mm"
   viewBox="0 0 270 270"
   version="1.1"
   id="svg1"
   xml:space="preserve"
   xmlns="http://www.w3.org/2000/svg"
   xmlns:svg="http://www.w3.org/2000/svg"><defs
     id="defs1" /><g
     id="layer1"
     transform="translate(0,-27)"><path
       style="fill:#000000"
       id="path4" /><path
       style="fill:#000000"
       id="path3" /><path
       style="fill:#000000"
       d="m 93.905262,242.27887 -20.292804,0.10541 -1.455209,-0.69525 c -0.800364,-0.38239 -1.78263,-1.00767 -2.182812,-1.38952 -0.400182,-0.38185 -0.727604,-0.94584 -0.727604,-1.25331 0,-0.30747 0.142875,-0.70192 0.3175,-0.87654 0.174625,-0.17463 0.674125,-0.3175 1.110001,-0.3175 0.503722,0 1.068771,0.26468 1.550672,0.72637 0.669711,0.64163 0.998773,0.7373 2.820359,0.82002 1.741336,0.0791 2.088709,0.0245 2.232634,-0.35052 0.09374,-0.24429 0.09832,-0.73154 0.01017,-1.08278 -0.08815,-0.35123 -0.254478,-0.58038 -0.36961,-0.50923 -0.115132,0.0712 -1.105755,0.0536 -2.201385,-0.039 -1.785223,-0.15091 -2.007774,-0.23103 -2.143459,-0.77164 -0.08327,-0.33179 -0.07924,-0.7913 0.009,-1.02115 0.128848,-0.33577 0.605437,-0.41789 2.425111,-0.41789 1.245612,0 2.17551,-0.0892 2.066441,-0.19831 -0.10907,-0.10907 -1.289773,-0.33774 -2.623785,-0.50815 -1.334013,-0.17041 -3.854227,-0.74025 -5.600477,-1.26631 -1.74625,-0.52606 -4.722813,-1.71349 -6.614584,-2.63874 -1.89177,-0.92525 -3.976487,-2.15608 -4.632704,-2.73518 -0.656216,-0.57909 -1.484381,-1.63354 -1.840366,-2.34321 -0.438605,-0.87438 -0.647977,-1.73755 -0.649513,-2.67774 -0.0021,-1.28559 0.08442,-1.47688 1.178908,-2.60627 0.649647,-0.67037 2.074144,-1.90014 3.165551,-2.73283 1.091406,-0.83268 2.723164,-2.01215 3.626129,-2.62103 0.902965,-0.60888 3.160941,-1.88275 5.017724,-2.83083 1.856783,-0.94807 4.488328,-2.08009 5.847877,-2.5156 1.35955,-0.4355 3.209231,-1.16263 4.110402,-1.61585 0.901171,-0.45322 1.704276,-0.92649 1.784678,-1.05171 0.0804,-0.12522 1.45643,-0.69506 3.057839,-1.26632 1.60141,-0.57125 4.393127,-1.40014 6.203815,-1.84197 1.810688,-0.44183 4.07039,-0.93598 5.021558,-1.09812 l 1.7294,-0.2948 0.78414,-1.21936 c 0.431285,-0.67065 0.868765,-1.34747 0.972185,-1.50404 0.10341,-0.15657 1.2345,-0.34421 2.513536,-0.41697 l 2.32551,-0.13229 0.0829,-0.8599 0.0829,-0.85989 -1.14124,0.002 c -0.62769,0.001 -2.153276,0.1139 -3.390206,0.25047 -1.236925,0.13656 -2.963335,0.31075 -3.836455,0.38709 -0.873129,0.0763 -3.016254,0.26002 -4.762504,0.40819 -1.74625,0.14817 -6.0325,0.50832 -9.525,0.80032 -3.4925,0.29201 -7.242969,0.60073 -8.334375,0.68604 -1.091406,0.0853 -3.829844,0.32612 -6.085417,0.53513 -2.255573,0.20902 -6.363229,0.55968 -9.128125,0.77924 -2.764896,0.21957 -6.753489,0.56699 -8.863541,0.77204 -2.110052,0.20506 -5.503334,0.50345 -7.540625,0.6631 -2.037292,0.15964 -4.918436,0.41612 -6.402543,0.56996 -1.484107,0.15384 -2.82356,0.20234 -2.976563,0.10778 -0.153002,-0.0946 -0.278186,-0.68336 -0.278186,-1.30845 v -1.13651 l 2.711979,-0.30861 c 1.491589,-0.16974 4.974167,-0.48606 7.739063,-0.70293 2.764895,-0.21687 6.81302,-0.57018 8.995833,-0.78513 2.182812,-0.21494 5.457031,-0.50358 7.276042,-0.64141 1.81901,-0.13783 7.05776,-0.55627 11.641666,-0.92986 4.583906,-0.37359 10.00125,-0.8504 12.038542,-1.05957 2.037291,-0.20918 5.549635,-0.51416 7.805208,-0.67773 2.255573,-0.16357 5.095586,-0.406 6.311136,-0.53874 l 2.210105,-0.24133 1.04046,-1.18203 c 0.57752,-0.6561 1.71317,-1.51237 2.552396,-1.92448 1.32049,-0.64844 1.79673,-0.73864 3.7609,-0.71228 1.41441,0.019 2.60172,0.18567 3.19957,0.4492 0.52284,0.23046 1.44751,0.83416 2.05482,1.34155 0.88138,0.73638 1.27684,0.89991 1.9598,0.81041 0.47058,-0.0617 3.23686,-0.29621 6.14727,-0.5212 2.91042,-0.22499 7.85151,-0.64224 10.98021,-0.92722 3.1287,-0.28498 8.54604,-0.76135 12.03854,-1.05859 3.4925,-0.29725 7.65969,-0.6518 9.26042,-0.78788 1.60073,-0.13609 4.27963,-0.36696 5.95312,-0.51304 1.67349,-0.14608 5.12631,-0.43998 7.67292,-0.6531 2.54661,-0.21312 6.35661,-0.5384 8.46667,-0.72284 2.11005,-0.18444 4.30685,-0.34042 4.88178,-0.34662 0.97972,-0.0106 1.05705,0.0454 1.23209,0.89132 0.10271,0.49642 0.13048,1.04923 0.0617,1.22846 -0.0688,0.17923 -0.74227,0.39881 -1.49666,0.48796 -0.75439,0.0891 -4.88397,0.4602 -9.17683,0.82458 -4.29286,0.36437 -11.25802,0.95913 -15.47812,1.32167 -4.22011,0.36254 -9.04214,0.78149 -10.71563,0.931 -1.67349,0.1495 -4.41193,0.38528 -6.08542,0.52395 -1.67349,0.13866 -7.9838,0.67843 -14.02291,1.19947 -6.03912,0.52105 -12.02109,1.01601 -13.29328,1.0999 -1.50418,0.0992 -2.42089,0.28246 -2.62139,0.52405 -0.1974,0.23785 -0.21676,0.46306 -0.0538,0.626 0.16293,0.16293 0.7514,0.10692 1.63568,-0.15568 1.191,-0.35369 1.91767,-0.36847 5.27731,-0.10729 2.14287,0.16658 3.98362,0.35656 4.09056,0.42218 0.10693,0.0656 0.68872,0.95134 1.29287,1.96827 0.60415,1.01692 1.29056,1.94756 1.52537,2.06808 0.2348,0.12051 1.08176,0.30185 1.88212,0.40297 0.80037,0.10113 3.06256,0.53982 5.02709,0.97489 1.96453,0.43506 4.88156,1.20083 6.48229,1.70171 1.60073,0.50088 3.85044,1.38782 4.99936,1.97099 1.7657,0.89623 2.34093,1.0603 3.71739,1.0603 0.95011,0 1.76613,0.13776 1.95896,0.33073 0.24588,0.24605 2.81673,0.37441 10.04094,0.50134 5.34074,0.0938 13.00669,0.18314 17.03546,0.19844 l 7.32503,0.0278 0.68426,-0.99219 c 0.37634,-0.5457 1.52219,-2.24234 2.54632,-3.77031 1.02414,-1.52797 2.69153,-3.96875 3.70532,-5.42396 1.01379,-1.45521 2.69636,-3.89599 3.73904,-5.42396 1.04269,-1.52797 2.46838,-3.58223 3.16821,-4.56502 0.69983,-0.98279 1.27242,-1.85479 1.27242,-1.93777 0,-0.083 0.84672,-1.39479 1.8816,-2.91513 1.03487,-1.52034 2.13293,-2.9403 2.44012,-3.15546 0.30718,-0.21516 1.03917,-0.3912 1.62663,-0.3912 0.78156,0 1.15676,-0.14197 1.39858,-0.52917 0.18176,-0.29104 0.56657,-0.52917 0.85515,-0.52917 0.28858,0 0.67339,0.23813 0.85515,0.52917 0.30452,0.48761 0.61702,0.52917 3.9793,0.52917 3.02366,0 3.67532,0.069 3.80344,0.40292 0.085,0.2216 -1.29698,4.75339 -3.07115,10.07064 -2.83322,8.49124 -3.19234,9.76361 -2.9511,10.45564 0.15107,0.43336 0.93404,1.74513 1.73993,2.91504 0.8059,1.16991 1.46526,2.1918 1.46526,2.27086 0,0.0791 0.56076,0.92957 1.24612,1.89002 1.16877,1.63788 1.24375,1.84336 1.20799,3.31038 -0.0338,1.38576 -0.13815,1.66812 -0.91539,2.47637 -0.48249,0.50175 -1.59163,1.45291 -2.46476,2.11368 -0.87312,0.66078 -2.48805,1.72569 -3.58873,2.36646 -1.65319,0.96243 -2.10252,1.37352 -2.58361,2.36374 -0.42487,0.87452 -0.8424,1.30734 -1.5439,1.60044 -0.89204,0.37272 -1.22159,0.35199 -4.56014,-0.28686 -1.97924,-0.37874 -4.31299,-0.82465 -5.18612,-0.9909 -1.05441,-0.20078 -3.14234,-1.09324 -6.21771,-2.65771 l -4.6302,-2.35543 -9.39271,0.27518 c -5.16599,0.15135 -13.08365,0.35139 -17.59479,0.44455 -6.27594,0.12959 -8.37221,0.25705 -8.92651,0.54274 -0.39843,0.20535 -1.70812,1.24094 -2.91042,2.30129 -1.20229,1.06036 -2.49728,2.15937 -2.87775,2.44225 -0.38047,0.28288 -1.63063,1.21303 -2.77813,2.06699 -1.1475,0.85397 -2.20542,1.69766 -2.35094,1.87486 -0.14553,0.1772 -0.80037,0.66127 -1.45521,1.07572 -0.65485,0.41445 -2.61938,1.57745 -4.36563,2.58444 -1.74625,1.007 -3.65851,2.10743 -4.24946,2.44541 -0.59096,0.33799 -2.09391,1.03652 -3.33991,1.5523 -1.246,0.51578 -3.05444,1.08746 -4.01877,1.27039 -0.96432,0.18293 -1.75332,0.41748 -1.75332,0.52123 0,0.10375 0.11175,0.25769 0.24832,0.3421 0.13658,0.0844 0.1975,0.41886 0.13539,0.74322 -0.0621,0.32436 -0.29293,0.72193 -0.51291,0.8835 -0.21998,0.16156 -0.39996,0.53723 -0.39996,0.83482 0,0.47472 0.23519,0.56847 1.91823,0.76458 l 1.91823,0.22351 0.0797,0.81629 c 0.0494,0.50653 -0.0814,0.94993 -0.34469,1.16846 -0.34263,0.28436 -4.33229,0.37248 -20.717161,0.45759 z m -4.140847,-0.98713 c 9.041979,0 18.244815,-0.0781 20.450765,-0.1736 2.20595,-0.0955 4.01082,-0.27407 4.01082,-0.39687 0,-0.12281 -0.80963,-0.22328 -1.79917,-0.22328 -1.04657,0 -1.93198,-0.13281 -2.11667,-0.3175 -0.17462,-0.17462 -0.3175,-0.7104 -0.3175,-1.19062 0,-0.69674 -0.1069,-0.87313 -0.52916,-0.87313 -0.45077,0 -0.52917,0.17639 -0.52917,1.19063 v 1.19062 H 94.668472 c -7.846223,0 -14.454192,-0.0723 -14.684375,-0.1606 -0.302727,-0.11616 -0.418514,-0.51877 -0.418514,-1.45521 0,-1.19715 -0.04875,-1.2946 -0.647632,-1.2946 -0.594725,0 -0.654164,0.11347 -0.727604,1.38906 l -0.07997,1.38906 h -2.553354 -2.553354 l -1.069152,-0.8599 c -0.588033,-0.47294 -1.203926,-0.85989 -1.36865,-0.85989 -0.164724,0 -0.259424,0.20809 -0.210443,0.46242 0.04898,0.25434 0.737052,0.84965 1.52905,1.32292 l 1.439995,0.86049 z m 4.485547,-1.85208 H 107.876 v -0.62627 -0.62627 l -4.82865,-0.1641 c -2.65575,-0.0902 -8.787468,-0.24101 -13.626038,-0.335 l -8.797396,-0.17091 v 0.96127 0.96128 z m -1.587504,-2.75165 c 2.182814,3.7e-4 3.110984,-0.0403 2.062614,-0.0904 -1.04838,-0.0501 -2.834313,-0.0504 -3.96875,-6.7e-4 -1.134438,0.0497 -0.276677,0.0907 1.906136,0.0911 z m -13.626042,-0.27037 c 2.983177,0 4.203568,-0.0386 2.711979,-0.0857 -1.491588,-0.0472 -3.93237,-0.0472 -5.423958,0 -1.491589,0.0472 -0.271198,0.0857 2.711979,0.0857 z m 22.621874,-0.73373 c 0.43656,0.005 0.64719,-0.0495 0.46806,-0.12197 -0.17914,-0.0725 -0.53632,-0.0769 -0.79375,-0.01 -0.25744,0.0671 -0.11087,0.12638 0.32569,0.13177 z m -13.515798,-0.21705 c 3.771415,0.002 6.80751,-0.0392 6.74688,-0.0921 -0.0606,-0.0529 -3.322145,-0.16586 -7.247797,-0.2511 -4.460221,-0.0968 -6.991006,-0.0623 -6.746875,0.0921 0.215573,0.13632 3.464056,0.24886 7.247792,0.2511 z m -9.238368,-0.31211 c 0.436563,0.005 0.647188,-0.0495 0.468057,-0.12197 -0.179132,-0.0725 -0.536319,-0.0769 -0.79375,-0.01 -0.257431,0.0671 -0.110869,0.12638 0.325693,0.13178 z m 28.758996,-0.25442 c 0.1012,0.0228 0.34016,-0.28601 0.53101,-0.68619 0.25091,-0.52611 0.57544,-0.74988 1.17187,-0.80804 0.49637,-0.0484 0.99382,0.0885 1.2491,0.34379 0.23332,0.23332 0.5305,0.61414 0.66041,0.84626 0.21335,0.38125 0.44588,0.36546 2.40574,-0.16337 1.19326,-0.32198 3.10587,-0.98617 4.25025,-1.47598 1.14438,-0.48982 2.41154,-1.10679 2.81592,-1.37105 l 0.73523,-0.48047 -1.92552,-0.17279 c -1.24205,-0.11147 -2.10199,-0.33251 -2.4227,-0.62275 -0.27345,-0.24747 -0.57082,-0.78519 -0.66081,-1.19492 -0.10807,-0.49201 0.0229,-1.13405 0.38577,-1.8908 0.30216,-0.6302 1.65082,-2.39598 2.99701,-3.92394 2.0116,-2.28323 2.75325,-2.92948 4.1633,-3.62774 l 1.71567,-0.8496 6.81302,-0.18097 c 3.74716,-0.0995 6.81302,-0.27849 6.81302,-0.3977 0,-0.1192 -3.12539,-0.15037 -6.94531,-0.0692 l -6.94531,0.14748 -11.37708,-3.82682 -11.37709,-3.82682 -3.985296,-0.17755 c -2.191922,-0.0977 -4.562332,-0.35121 -5.267575,-0.56346 -0.911108,-0.2742 -2.614137,-0.38591 -5.883564,-0.38591 -3.883225,0 -4.733441,0.0723 -5.448054,0.46302 l -0.846757,0.46302 2.910417,0.16478 c 1.600729,0.0906 4.874948,0.18037 7.276042,0.19943 3.853269,0.0306 4.466829,0.0964 5.227939,0.56041 0.474272,0.28916 1.069592,0.85427 1.322922,1.25578 0.39241,0.62195 0.61021,0.7177 1.47125,0.6468 0.555856,-0.0458 1.180936,0.0581 1.389056,0.23084 0.30113,0.24991 0.37841,0.22828 0.37841,-0.10591 0,-0.23098 0.2303,-0.54322 0.51178,-0.69386 0.28147,-0.15064 1.65069,-0.27389 3.0427,-0.27389 2.17816,0 2.6047,0.0738 3.06011,0.52917 0.29104,0.29104 0.52916,0.7899 0.52916,1.10857 0,0.31867 -0.4972,1.42 -1.1049,2.4474 -0.6077,1.02739 -1.39364,2.26278 -1.74654,2.7453 -0.59801,0.81766 -0.61065,0.89997 -0.18582,1.21061 0.34078,0.24919 0.42923,0.61205 0.35049,1.43779 l -0.10533,1.10449 h 4.07274 4.07275 l -0.13838,0.52917 c -0.12458,0.4764 -0.008,0.52917 1.16807,0.52917 0.95923,0 1.35008,0.1137 1.47062,0.42783 0.0903,0.23531 0.0546,0.74132 -0.0793,1.12448 -0.1629,0.46608 -0.46594,0.72274 -0.91562,0.77548 -0.36967,0.0434 -0.99256,-0.043 -1.38419,-0.19189 -0.581,-0.22089 -0.71207,-0.43689 -0.71207,-1.17344 v -0.90272 l -6.68073,-0.18942 c -3.6744,-0.10419 -7.037906,-0.14739 -7.474466,-0.096 -0.7455,0.0877 -0.78836,0.1547 -0.70508,1.10169 0.0488,0.55456 -0.0507,1.58934 -0.22109,2.29951 -0.2155,0.8983 -0.52429,1.43259 -1.01471,1.75573 -0.607672,0.4004 -1.270902,0.45587 -4.806001,0.40197 -2.255573,-0.0344 -8.734992,-0.17646 -14.398709,-0.31571 -8.696296,-0.21382 -10.398065,-0.31897 -10.943278,-0.67621 -0.593426,-0.38883 -0.636343,-0.55464 -0.530957,-2.05142 0.08792,-1.24875 0.320484,-1.96768 0.997484,-3.08361 0.485556,-0.80037 1.697302,-2.874 2.692767,-4.60808 0.995466,-1.73408 1.765619,-3.19719 1.711453,-3.25136 -0.05417,-0.0542 -0.896068,1.26392 -1.870893,2.92907 -0.974825,1.66515 -2.192646,3.44778 -2.70627,3.96141 -0.513623,0.51362 -1.339566,1.12638 -1.835429,1.36168 -0.495862,0.2353 -2.524175,0.60691 -4.507361,0.82579 -1.983186,0.21889 -3.76819,0.33566 -3.966675,0.25949 -0.211973,-0.0813 -0.360882,0.0359 -0.360882,0.28418 0,0.35751 0.214098,0.39349 1.389062,0.23343 0.763985,-0.10408 2.817813,-0.34193 4.564063,-0.52857 1.850912,-0.19781 3.281717,-0.24156 3.430894,-0.1049 0.160775,0.14729 -0.2146,1.18158 -1.009843,2.78248 -1.035577,2.08471 -1.202387,2.60689 -0.917352,2.87166 0.191611,0.17799 1.181822,0.63328 2.200467,1.01175 1.018646,0.37847 2.983178,0.98996 4.365625,1.35886 1.382448,0.3689 3.516927,0.78607 4.743286,0.92703 1.22636,0.14097 2.357453,0.15867 2.513542,0.0393 0.156089,-0.11932 0.477343,-0.28555 0.713898,-0.36938 0.236556,-0.0838 0.756797,0.0171 1.156092,0.22422 0.544913,0.2827 2.84637,0.44819 9.227191,0.66349 4.67566,0.15776 10.763386,0.37693 13.528282,0.48704 2.76489,0.11012 5.10988,0.21884 5.21108,0.24162 z m 2.08701,0.0414 c 0.32331,0 0.50569,-0.13674 0.44109,-0.33073 -0.0606,-0.1819 -0.30861,-0.36922 -0.55121,-0.41627 -0.26108,-0.0506 -0.4411,0.0843 -0.4411,0.33073 0,0.24543 0.22622,0.41627 0.55122,0.41627 z m 10.94042,-5.02708 h 2.73038 l 2.32461,-1.28452 c 1.27854,-0.70649 2.57319,-1.52028 2.87701,-1.80842 0.30382,-0.28814 0.90959,-0.75054 1.34616,-1.02756 0.43656,-0.27702 1.92484,-1.35812 3.30729,-2.40245 1.38245,-1.04433 2.98979,-2.31371 3.57187,-2.82086 0.58209,-0.50714 0.9988,-0.96659 0.92604,-1.021 -0.0728,-0.0544 -2.81119,-0.025 -6.08541,0.0654 l -5.95313,0.16436 -1.35541,0.68928 c -0.97132,0.49396 -1.97423,1.40863 -3.53915,3.22776 -1.20106,1.39616 -2.44237,2.91987 -2.75845,3.38603 -0.31609,0.46616 -0.64926,1.04225 -0.74037,1.28021 -0.0911,0.23796 0.0107,0.68444 0.22626,0.99219 0.35596,0.5082 0.64245,0.55954 3.1223,0.55954 z m -58.203773,-0.3436 c 0.15277,-0.0483 0.591912,-0.67534 0.97587,-1.39345 0.383958,-0.71811 0.778935,-1.57355 0.877725,-1.90097 0.153243,-0.50789 0.08126,-0.59531 -0.490185,-0.59531 -0.368392,0 -1.870072,0.13648 -3.337065,0.30329 -2.207167,0.25098 -2.653479,0.37649 -2.587364,0.72761 0.04394,0.23337 1.025653,0.99183 2.181576,1.68547 1.155923,0.69364 2.226672,1.22165 2.379443,1.17336 z m 32.635105,-1.03661 c 0.62527,0.0411 1.05684,-0.12762 1.52562,-0.59641 l 0.653702,-0.65369 -0.0704,-7.18927 -0.0704,-7.18926 -0.661462,-0.46902 c -0.56424,-0.40008 -1.5267,-0.4953 -6.548433,-0.64788 l -5.88698,-0.17887 0.0084,0.75178 c 0.0078,0.69308 0.03671,0.71447 0.370714,0.27397 0.333223,-0.43946 0.822683,-0.47131 6.09876,-0.39687 5.321464,0.0751 5.763594,0.11809 6.111574,0.59453 0.27116,0.37125 0.37512,1.33937 0.37512,3.49328 0,1.69769 -0.13211,3.26963 -0.30705,3.65359 -0.16888,0.37065 -0.38603,0.67391 -0.48255,0.67391 -0.0965,0 -1.23826,0.17096 -2.53721,0.3799 -1.298953,0.20894 -3.373762,0.51243 -4.610689,0.67442 -1.236927,0.16198 -2.627685,0.35207 -3.090573,0.42241 -0.638746,0.0971 -0.975525,-0.0158 -1.39715,-0.46841 l -0.555536,-0.59629 0.07423,3.5643 0.07423,3.5643 5.027083,0.14114 c 2.764896,0.0776 5.419448,0.16693 5.899008,0.19844 z m -14.101091,-0.32432 1.852083,-0.0153 0.02744,-4.10104 c 0.01509,-2.25558 -0.02112,-3.72879 -0.08047,-3.27381 -0.05935,0.45498 -0.369353,1.06312 -0.688894,1.35142 -0.405449,0.36581 -1.260476,0.61142 -2.829944,0.81288 -1.236927,0.15879 -3.753052,0.49147 -5.59139,0.73931 -1.838337,0.24783 -3.530122,0.37858 -3.759522,0.29055 -0.229401,-0.088 -0.51499,-0.53785 -0.634643,-0.99961 l -0.217552,-0.83956 -0.983863,1.91263 c -0.541125,1.05194 -0.98204,2.16829 -0.979811,2.48076 0.0022,0.31247 0.116747,0.74673 0.254487,0.96501 0.205183,0.32516 1.292098,0.42354 6.015219,0.54442 3.170631,0.0812 6.598221,0.14069 7.616867,0.1323 z m 33.586469,-2.79339 c 0.22687,0 0.41249,-0.11906 0.41249,-0.26458 0,-0.14552 -0.11204,-0.26458 -0.24897,-0.26458 -0.13693,0 -0.32255,0.11906 -0.41249,0.26458 -0.0899,0.14552 0.0221,0.26458 0.24897,0.26458 z m -56.438849,-1.5875 c 0.725559,0 2.17557,-0.12647 3.222247,-0.28104 1.046677,-0.15457 2.270629,-0.33493 2.719891,-0.40079 0.449263,-0.0659 1.310071,-0.54193 1.912907,-1.05793 0.686679,-0.58777 1.900601,-2.29101 3.250087,-4.56015 1.184713,-1.99208 2.46703,-3.96127 2.849594,-4.37599 0.382564,-0.41471 1.203601,-1.10642 1.824527,-1.53714 0.620926,-0.43072 1.790037,-1.01057 2.598023,-1.28856 0.807987,-0.27798 2.059424,-0.55199 2.780971,-0.60889 0.721547,-0.0569 1.387984,-0.17954 1.48097,-0.27252 0.09299,-0.093 -0.432771,-0.16907 -1.16835,-0.16907 -0.735579,0 -2.392532,0.30568 -3.682118,0.67929 -1.289586,0.37361 -3.235514,1.03591 -4.324284,1.47177 -1.088769,0.43587 -3.336154,1.55788 -4.994188,2.49338 -1.658034,0.93549 -3.967193,2.38655 -5.131465,3.22458 -1.164272,0.83803 -2.875715,2.21884 -3.803207,3.06848 -1.151516,1.05486 -1.68635,1.74115 -1.68635,2.16392 0,0.34051 0.187098,0.80621 0.415774,1.03489 0.266791,0.26679 0.888479,0.41577 1.734971,0.41577 z m 12.75988,-0.79375 c 0.342719,0 2.705335,-0.29424 5.250259,-0.65387 2.544923,-0.35963 4.808031,-0.72329 5.029129,-0.80813 0.322458,-0.12374 0.43918,-0.93546 0.589935,-4.10257 0.103366,-2.17157 0.112669,-4.0701 0.02067,-4.21895 -0.092,-0.14885 -0.9703,-0.27064 -1.951785,-0.27064 -1.374055,0 -2.090427,0.15244 -3.114472,0.66274 -0.731474,0.36451 -1.568011,0.93006 -1.85897,1.25677 -0.29096,0.32672 -1.442265,2.16624 -2.558455,4.08784 -1.116191,1.92159 -2.029438,3.61823 -2.029438,3.77031 0,0.15208 0.280406,0.2765 0.623125,0.2765 z m 28.466543,0 h 1.043836 l 0.0806,-1.24612 c 0.0699,-1.07976 0.1686,-1.26671 0.73944,-1.40036 0.44447,-0.10406 0.55206,-0.2202 0.33073,-0.35699 -0.21503,-0.1329 -0.32805,-0.90391 -0.32801,-2.23766 l 5e-5,-2.03491 h -1.454476 -1.45448 l -7.8e-4,3.63802 -7.8e-4,3.63802 z m 97.191226,-0.7978 c 0.25933,0.002 0.88441,-0.16847 1.38906,-0.37932 0.50465,-0.21086 0.91754,-0.5711 0.91754,-0.80055 0,-0.36799 -0.0858,-0.37375 -0.7276,-0.0489 -0.40018,0.20257 -1.19562,0.45319 -1.76763,0.55693 -0.76313,0.1384 -0.93924,0.2524 -0.66146,0.42818 0.20821,0.13176 0.59075,0.24139 0.85009,0.24362 z m -93.47256,-0.26053 c 0.88194,0 1.5875,-0.11759 1.5875,-0.26458 0,-0.14699 -0.70556,-0.26459 -1.5875,-0.26459 -0.88195,0 -1.5875,0.1176 -1.5875,0.26459 0,0.14699 0.70555,0.26458 1.5875,0.26458 z m 88.54599,-0.80832 c 0.75119,0.008 2.24702,-0.15404 3.32408,-0.36011 1.07707,-0.20608 2.72465,-0.68515 3.6613,-1.0646 0.93665,-0.37945 2.78714,-1.34474 4.1122,-2.14509 1.32505,-0.80035 3.14076,-2.11721 4.03489,-2.92635 1.50641,-1.36323 1.6257,-1.55386 1.6257,-2.59794 0,-0.91038 -0.26237,-1.52855 -1.36624,-3.21895 -0.75144,-1.1507 -2.06112,-3.12388 -2.91042,-4.38485 -1.30661,-1.93995 -1.54417,-2.47346 -1.54417,-3.46784 0,-0.7191 0.51341,-2.67337 1.32292,-5.03558 0.7276,-2.12322 1.32291,-3.98574 1.32291,-4.13893 0,-0.18809 -2.31414,-0.27853 -7.1268,-0.27853 h -7.1268 l -1.48498,2.18282 c -0.81673,1.20054 -3.15378,4.56406 -5.19344,7.47447 -2.03965,2.91042 -3.78076,5.47027 -3.86913,5.68855 -0.0884,0.21828 -0.62048,1.08089 -1.18247,1.91691 l -1.02181,1.52004 0.0751,2.80988 0.0751,2.80988 4.00003,2.08933 c 2.36706,1.23637 4.79737,2.29814 5.95313,2.60082 1.0742,0.28133 2.56769,0.51806 3.31887,0.52607 z m 2.24185,-2.65835 c -0.67451,-0.0149 -1.59067,-0.11428 -2.03591,-0.22086 -0.44523,-0.10658 -1.36235,-0.46988 -2.03802,-0.80733 -0.67568,-0.33745 -1.58093,-0.9822 -2.01166,-1.43278 -0.43073,-0.45058 -1.05921,-1.35502 -1.39663,-2.00986 -0.40692,-0.78975 -0.64719,-1.78719 -0.71361,-2.96246 -0.0674,-1.1936 0.0498,-2.24861 0.35938,-3.23275 0.25273,-0.8035 0.87487,-1.94617 1.38254,-2.53926 0.50766,-0.5931 1.65341,-1.44959 2.54611,-1.90333 1.37495,-0.69886 1.92645,-0.82722 3.60746,-0.83962 1.60362,-0.0118 2.27148,0.11831 3.48069,0.67821 0.82298,0.38107 1.97013,1.18107 2.54922,1.77779 0.68585,0.70672 1.29412,1.73571 1.74483,2.95165 0.38056,1.02669 0.69192,2.23639 0.69192,2.68821 0,0.45183 -0.20532,1.48682 -0.45628,2.29997 -0.35475,1.14949 -0.81101,1.8343 -2.05052,3.07764 -1.20711,1.21085 -1.93892,1.70877 -3.01368,2.05052 -0.7807,0.24824 -1.97132,0.43916 -2.64584,0.42426 z m -0.43925,-1.03125 c 0.59289,0 0.64079,-0.0814 0.50627,-0.85989 -0.0817,-0.47295 -0.21206,-1.03849 -0.28966,-1.25677 -0.10018,-0.28178 -0.24354,-0.16668 -0.49434,0.39687 -0.19429,0.43656 -0.35862,1.00211 -0.36518,1.25677 -0.008,0.31947 0.19109,0.46302 0.64291,0.46302 z m 1.86818,-0.31816 c 0.0698,-0.0698 -0.10966,-0.83049 -0.39887,-1.69034 -0.42554,-1.26515 -0.49834,-1.36872 -0.38167,-0.54294 0.0793,0.56124 0.25879,1.3219 0.39887,1.69034 0.14009,0.36845 0.31184,0.61277 0.38167,0.54294 z m 1.37303,-0.21506 c 0.11274,-0.002 0.38149,-0.11565 0.59722,-0.25206 0.32753,-0.2071 0.26482,-0.38099 -0.38023,-1.05428 -0.42486,-0.44345 -0.86551,-0.80627 -0.97924,-0.80627 -0.11373,0 -0.15452,0.14883 -0.0906,0.33073 0.0639,0.1819 0.23578,0.65815 0.38202,1.05833 0.14624,0.40018 0.35813,0.72578 0.47087,0.72355 z m -6.23704,-0.26458 c 0.0949,0.002 0.3038,-0.37244 0.46421,-0.8326 0.16042,-0.46016 0.22799,-0.90033 0.15016,-0.97816 -0.0778,-0.0778 -0.46532,0.18328 -0.86109,0.58024 -0.60777,0.60958 -0.65791,0.76095 -0.32271,0.9741 0.21828,0.1388 0.47452,0.25419 0.56943,0.25642 z m 1.45904,-0.0841 c 0.097,-0.097 0.097,-0.25577 0,-0.35278 -0.097,-0.097 -0.17639,-0.0176 -0.17639,0.17639 0,0.19403 0.0794,0.2734 0.17639,0.17639 z m 6.66699,-0.84616 c 0.0712,-0.0712 -0.219,-0.49569 -0.64496,-0.94326 -0.42595,-0.44757 -1.01258,-0.93687 -1.30362,-1.08734 -0.29105,-0.15047 -8.2e-4,0.274 0.64495,0.94326 0.64577,0.66927 1.2324,1.15857 1.30363,1.08734 z m -9.6215,-0.58554 c 0.29104,-0.15598 0.82682,-0.61333 1.19062,-1.01634 l 0.66146,-0.73273 -0.81725,0.5638 c -0.44948,0.31009 -0.98526,0.76744 -1.19062,1.01634 -0.33773,0.40934 -0.32286,0.42547 0.15579,0.16893 z m 10.48111,-0.33219 c 0.10023,0 0.43213,-0.42352 0.73755,-0.94117 0.30541,-0.51764 0.5553,-1.17248 0.5553,-1.4552 0,-0.46331 -0.19585,-0.51405 -1.98438,-0.51405 -1.0914,0 -1.98437,0.0852 -1.98437,0.18935 0,0.10414 0.56107,0.75899 1.24682,1.45521 0.68575,0.69622 1.32884,1.26586 1.42908,1.26586 z m -11.5948,-0.52917 c 0.18394,0 0.92648,-0.53044 1.6501,-1.17877 l 1.31567,-1.17876 -1.90261,-0.0119 c -1.04644,-0.007 -1.96838,0.0946 -2.04877,0.22462 -0.0804,0.13006 0.0332,0.66584 0.25252,1.19062 0.21927,0.52479 0.54916,0.95415 0.73309,0.95415 z m 3.23036,-0.79375 c 0.0728,0 0.13229,-0.0595 0.13229,-0.13229 0,-0.0728 -0.0595,-0.13229 -0.13229,-0.13229 -0.0728,0 -0.1323,0.0595 -0.1323,0.13229 0,0.0728 0.0595,0.13229 0.1323,0.13229 z m 2.9895,-0.62304 c 0.50192,-0.0814 1.12523,-0.34053 1.38514,-0.57575 0.25991,-0.23521 0.54532,-0.71757 0.63426,-1.07192 0.0915,-0.3647 -0.009,-0.9738 -0.23101,-1.40367 -0.21598,-0.41768 -0.58543,-0.83337 -0.821,-0.92376 -0.23556,-0.0904 -0.81453,-0.16436 -1.28658,-0.16436 -0.57266,0 -1.06441,0.21941 -1.47767,0.65931 -0.38023,0.40474 -0.61938,0.98277 -0.61938,1.49708 0,0.59237 0.22023,1.02721 0.75183,1.48447 0.59353,0.51054 0.94396,0.61552 1.66441,0.4986 z m 6.5355,-1.75821 c 0.0728,0 0.13229,-0.0595 0.13229,-0.13229 0,-0.0728 -0.0595,-0.13229 -0.13229,-0.13229 -0.0728,0 -0.1323,0.0595 -0.1323,0.13229 0,0.0728 0.0595,0.13229 0.1323,0.13229 z m -11.82958,-1.32291 h 2.02982 l -0.92096,-0.8599 c -0.50652,-0.47294 -1.23236,-1.20793 -1.61298,-1.6333 l -0.69202,-0.77341 -0.53717,1.43486 c -0.29544,0.78918 -0.48301,1.52417 -0.41683,1.63331 0.0662,0.10914 1.03374,0.19844 2.15014,0.19844 z m 10.2599,0 h 2.00221 l -0.18364,-0.59532 c -0.101,-0.32742 -0.35457,-0.93116 -0.56347,-1.34164 -0.25666,-0.5043 -0.48174,-0.67035 -0.69409,-0.51206 -0.17284,0.12884 -0.82027,0.62352 -1.43873,1.09929 -0.61846,0.47576 -1.12448,0.97408 -1.12448,1.10738 0,0.13329 0.90099,0.24235 2.0022,0.24235 z m -7.87867,-1.05834 c 0.0531,0 -0.46538,-0.65774 -1.15218,-1.46165 -0.6868,-0.80391 -1.31391,-1.39648 -1.39357,-1.31682 -0.0797,0.0797 0.43882,0.7374 1.15218,1.46165 0.71336,0.72425 1.34047,1.31682 1.39357,1.31682 z m 5.74418,-0.52104 c 0.29104,-0.20524 0.91005,-0.76729 1.37557,-1.24898 0.46553,-0.4817 0.76318,-0.87491 0.66146,-0.87382 -0.10172,10e-4 -0.72073,0.56314 -1.37557,1.24898 -0.65485,0.68585 -0.9525,1.07907 -0.66146,0.87382 z m -4.16474,-0.91457 c 0.0447,-0.0447 0.001,-0.5808 -0.0963,-1.19137 -0.0976,-0.61056 -0.27261,-1.01341 -0.38884,-0.89521 -0.11623,0.11819 -0.0729,0.65431 0.0963,1.19137 0.16918,0.53705 0.34415,0.9399 0.38884,0.89521 z m -1.49436,-0.15189 c 0.1944,0 0.23337,-0.32337 0.11501,-0.95429 -0.0985,-0.52486 -0.28879,-1.24297 -0.42294,-1.59581 l -0.24391,-0.64153 -0.66484,0.43562 c -0.36567,0.23959 -0.66485,0.53041 -0.66485,0.64626 0,0.11585 0.35719,0.51118 0.79375,0.87853 0.43657,0.36734 0.79375,0.79464 0.79375,0.94956 0,0.15491 0.13232,0.28166 0.29403,0.28166 z m 3.59154,0 c 0.13091,0 0.37371,-0.50601 0.53955,-1.12448 0.16585,-0.61846 0.38666,-1.3626 0.4907,-1.65364 0.13101,-0.36651 0.10341,-0.44784 -0.0898,-0.26459 -0.15341,0.14553 -0.39615,0.68131 -0.53941,1.19063 -0.14326,0.50932 -0.34566,1.1344 -0.44977,1.38906 -0.10411,0.25466 -0.0822,0.46302 0.0487,0.46302 z m 1.20148,0 c 0.0641,0 0.6223,-0.46688 1.24041,-1.03752 1.06446,-0.9827 1.09567,-1.05261 0.59059,-1.32292 -0.29329,-0.15696 -0.63623,-0.28539 -0.76208,-0.28539 -0.12586,0 -0.38864,0.44648 -0.58396,0.99219 -0.19532,0.5457 -0.41057,1.14101 -0.47833,1.32291 -0.0678,0.1819 -0.0708,0.33073 -0.007,0.33073 z m -2.19495,-0.96555 c 0.10653,-0.12379 0.33283,-0.71514 0.50288,-1.3141 0.17006,-0.59897 0.30919,-1.16452 0.30919,-1.25677 0,-0.0923 -0.36258,-0.16774 -0.80574,-0.16774 h -0.80574 l 0.16739,0.99218 c 0.0921,0.54571 0.22834,1.21254 0.30285,1.48185 0.0745,0.26931 0.22264,0.38837 0.32917,0.26458 z m -1.63312,-1.52814 c 0.0618,-0.0619 -0.0139,-0.32974 -0.16834,-0.59532 -0.2306,-0.39655 -0.28223,-0.40798 -0.28884,-0.0639 -0.004,0.23041 0.0713,0.4983 0.16834,0.59531 0.097,0.097 0.22699,0.12579 0.28884,0.064 z m -105.93426,16.252 c 0.50054,0 2.379511,-0.18013 4.175491,-0.40027 1.795981,-0.22015 3.771431,-0.46557 4.389901,-0.54538 l 1.12448,-0.14511 v -3.15375 -3.15375 l -0.59532,-0.14647 c -0.32742,-0.0806 -2.738433,-0.11259 -5.357808,-0.0712 l -4.7625,0.0753 -0.07444,3.42559 c -0.04094,1.88408 -0.01491,3.58072 0.05784,3.77031 0.07321,0.19079 0.538671,0.34473 1.042354,0.34473 z m 17.16193,-1.63832 1.1269,-0.0815 1.49532,-2.49357 c 0.82244,-1.37147 1.43319,-2.65553 1.35723,-2.85347 -0.10611,-0.27651 -0.72838,-0.34244 -2.68595,-0.28455 l -2.54785,0.0753 -0.0767,2.4937 c -0.0422,1.37153 -0.0135,2.65835 0.0637,2.8596 0.0965,0.25155 0.49262,0.34044 1.26732,0.28443 z m 29.35455,-2.01206 c 3.94536,-0.0432 7.60205,-0.16682 8.12598,-0.27476 l 0.95262,-0.19626 0.23574,-2.81064 c 0.12966,-1.54586 0.16386,-2.99798 0.076,-3.22694 -0.0879,-0.22896 -1.08692,-0.84647 -2.22012,-1.37225 -1.13321,-0.52577 -2.63732,-1.18519 -3.34248,-1.46536 l -1.2821,-0.50941 0.95137,0.89726 c 0.52326,0.49349 0.95138,1.08182 0.95138,1.3074 0,0.22558 -0.074,0.60288 -0.16436,0.83844 -0.0904,0.23557 -0.5012,0.60249 -0.9129,0.81539 -0.4117,0.2129 -1.39154,0.38709 -2.17741,0.38709 -0.78588,0 -1.83359,-0.13746 -2.32825,-0.30546 -0.49465,-0.168 -1.63587,-0.72474 -2.53603,-1.23721 -0.98757,-0.56222 -1.6856,-1.14937 -1.76007,-1.48047 -0.0679,-0.30181 -0.0457,-1.08112 0.0492,-1.73182 0.12663,-0.86816 0.33432,-1.26365 0.78024,-1.48577 0.54753,-0.27272 0.38481,-0.35857 -1.64408,-0.86743 -1.23845,-0.31062 -2.4837,-0.56476 -2.76722,-0.56476 -0.39099,0 -0.55393,0.23964 -0.67466,0.99219 -0.0875,0.5457 -0.27454,2.12328 -0.41555,3.50573 -0.141,1.38245 -0.25681,3.46604 -0.25734,4.63021 -5.4e-4,1.16416 0.0639,2.35803 0.14315,2.65304 0.0962,0.3579 0.62649,0.71004 1.59385,1.05833 1.33202,0.47958 2.03211,0.51559 8.62308,0.44346 z m -60.242236,-0.58296 c 0.07276,0 0.132292,-0.0595 0.132292,-0.13229 0,-0.0728 -0.05953,-0.13229 -0.132292,-0.13229 -0.07276,0 -0.132291,0.0595 -0.132291,0.13229 0,0.0728 0.05953,0.13229 0.132291,0.13229 z m 80.224456,-0.39634 c 5.35363,-0.11492 13.00809,-0.28111 17.00992,-0.36932 l 7.27604,-0.16038 0.0771,-1.88891 0.0772,-1.88891 -5.10423,-0.15619 c -2.80733,-0.0859 -10.46204,-0.1884 -17.01048,-0.22776 l -11.90625,-0.0716 -0.0766,2.48598 -0.0766,2.48598 z m 19.39117,-0.81118 c -0.80037,0.0718 -1.87193,0.005 -2.38125,-0.14858 -0.50933,-0.15351 -1.07487,-0.40201 -1.25677,-0.55223 -0.1819,-0.15022 -0.33073,-0.61155 -0.33073,-1.02517 0,-0.50244 0.19184,-0.85472 0.57801,-1.06139 0.38276,-0.20485 1.28547,-0.25478 2.67241,-0.14783 1.15191,0.0888 2.79681,0.3586 3.65532,0.59948 1.13742,0.31914 1.56092,0.56263 1.56092,0.89741 0,0.33374 -0.41621,0.57548 -1.52135,0.88362 -0.83675,0.2333 -2.1762,0.48291 -2.97656,0.55469 z m 0.49233,-1.01349 c 0.66334,-0.0909 1.31374,-0.27298 1.44532,-0.40456 0.1426,-0.1426 -0.36563,-0.31482 -1.25818,-0.42633 -0.82358,-0.1029 -1.55431,-0.1302 -1.62384,-0.0607 -0.0695,0.0695 -0.0461,0.33577 0.0521,0.59164 0.14822,0.38625 0.38326,0.43716 1.3846,0.29992 z m -3.17056,-0.16024 c 0.1277,0 0.3804,-0.17859 0.56156,-0.39687 0.27518,-0.33158 0.23698,-0.39688 -0.23219,-0.39688 -0.32277,0 -0.56156,0.16876 -0.56156,0.39688 0,0.21828 0.10448,0.39687 0.23219,0.39687 z m -48.22657,1.5549 c 0.19868,0.0222 0.3487,-1.59616 0.46911,-5.06063 0.0974,-2.80127 0.24547,-5.52799 0.32913,-6.05936 0.12433,-0.78966 0.0628,-0.9921 -0.33681,-1.1083 -0.26891,-0.0782 -1.27823,-0.22131 -2.24293,-0.31804 l -1.754,-0.17587 -0.33192,1.81334 c -0.18255,0.99733 -0.40528,3.46201 -0.49495,5.47705 -0.10351,2.32606 -0.0668,3.72678 0.10067,3.83645 0.14503,0.095 1.09753,0.4855 2.11666,0.86775 1.01913,0.38225 1.9844,0.70967 2.14504,0.72761 z m -48.181659,-0.23198 c 0.07276,0 0.132292,-0.0595 0.132292,-0.13229 0,-0.0728 -0.05953,-0.13229 -0.132292,-0.13229 -0.07276,0 -0.132292,0.0595 -0.132292,0.13229 0,0.0728 0.05953,0.13229 0.132292,0.13229 z m -0.954909,-0.64362 c 0.159833,-0.0988 0.414497,-0.4111 0.56592,-0.69403 0.151424,-0.28294 0.225289,-0.51443 0.164145,-0.51443 -0.06115,0 -0.315809,0.31231 -0.565921,0.69403 -0.250112,0.38172 -0.323976,0.61321 -0.164144,0.51443 z m 1.285638,0.0998 c 0.109141,-0.008 0.475384,-0.36524 0.813874,-0.79375 0.33849,-0.42851 0.552261,-0.77911 0.475047,-0.77911 -0.07721,0 -0.443457,0.30307 -0.813873,0.67349 -0.370417,0.37041 -0.673485,0.7276 -0.673485,0.79375 0,0.0661 0.0893,0.11368 0.198437,0.10562 z m 26.259894,-0.24994 c 0.14552,0 0.26459,-0.11906 0.26459,-0.26458 0,-0.14552 -0.11907,-0.26459 -0.26459,-0.26459 -0.14552,0 -0.26458,0.11907 -0.26458,0.26459 0,0.14552 0.11906,0.26458 0.26458,0.26458 z m 16.192786,-3.93471 c 0.10203,-1.69221 0.31511,-4.13367 0.47352,-5.42546 0.15841,-1.29178 0.21548,-2.42124 0.12682,-2.5099 -0.0887,-0.0887 -3.08457,-0.20631 -6.65758,-0.26145 -3.82171,-0.059 -7.81743,0.0282 -9.70502,0.21163 -1.764756,0.17153 -4.040518,0.45313 -5.057248,0.62578 l -1.848597,0.3139 -0.298821,2.24896 c -0.164352,1.23693 -0.206346,2.35141 -0.09332,2.47662 0.113027,0.12522 0.900768,0.39125 1.750548,0.59118 0.86069,0.20251 3.009952,0.36778 4.852332,0.37314 l 3.307286,0.01 6.48229,2.21136 6.4823,2.21135 z m -7.72612,-2.67987 c -1.00542,0 -1.88095,-0.1347 -2.06375,-0.3175 -0.17462,-0.17463 -0.3175,-0.58284 -0.3175,-0.90715 0,-0.3243 0.1871,-0.77674 0.41577,-1.00541 0.23155,-0.23155 0.90564,-0.42928 1.52136,-0.44624 0.60807,-0.0168 1.3437,-0.005 1.63475,0.0258 0.29104,0.031 0.67799,0.17831 0.85989,0.32745 0.1819,0.14914 0.33073,0.58996 0.33073,0.9796 0,0.38964 -0.14287,0.85131 -0.3175,1.02594 -0.1828,0.1828 -1.05833,0.3175 -2.06375,0.3175 z m 0,-0.79375 c 1.15445,0 1.34815,-0.0705 1.27255,-0.46302 -0.0691,-0.35867 -0.35588,-0.46303 -1.27255,-0.46303 -0.91667,0 -1.20347,0.10436 -1.27255,0.46303 -0.0756,0.39254 0.1181,0.46302 1.27255,0.46302 z m 6.48229,-1.69219 c -0.58208,0.0152 -1.50482,-0.0218 -2.05052,-0.0821 -0.92462,-0.10226 -0.99219,-0.16938 -0.99219,-0.98561 v -0.87589 l 1.88567,-0.18581 c 1.10251,-0.10863 1.98962,-0.0819 2.13594,0.0645 0.13765,0.13764 0.21183,0.65236 0.16485,1.14381 -0.0809,0.84637 -0.14128,0.89499 -1.14375,0.92114 z m -0.39687,-0.99542 c 0.3638,0 0.51263,-0.0601 0.33073,-0.13346 -0.1819,-0.0734 -0.47956,-0.0734 -0.66146,0 -0.1819,0.0734 -0.0331,0.13346 0.33073,0.13346 z m -38.816194,8.62372 c 0.260938,-0.0994 0.407781,-0.2473 0.32632,-0.32877 -0.08146,-0.0815 -0.294956,-1.6e-4 -0.474432,0.18066 -0.259363,0.2613 -0.228972,0.2917 0.148112,0.14811 z m 7.264631,-1.21335 c 0.181901,0.0219 0.330729,-0.0793 0.330729,-0.22485 0,-0.15032 -0.657014,-0.24742 -1.521354,-0.22484 l -1.521354,0.0397 1.190625,0.1851 c 0.654843,0.10181 1.339453,0.20299 1.521354,0.22485 z m 88.767703,-1.3256 c 3.16508,0.0233 5.75469,-0.0547 5.75469,-0.17333 0,-0.11866 -7.56937,-0.36773 -16.82082,-0.55348 -9.25145,-0.18576 -16.8913,-0.26726 -16.97743,-0.18113 -0.0861,0.0861 -0.0924,0.22081 -0.0139,0.29927 0.0785,0.0785 5.1287,0.23797 11.22274,0.35446 6.09405,0.11649 13.66969,0.23089 16.83477,0.25421 z m -37.59247,-0.23378 c 0.82484,0.006 1.68805,-0.0607 1.91823,-0.14898 0.23018,-0.0883 0.41851,-0.38602 0.41851,-0.66154 0,-0.33134 -0.45797,-0.74724 -1.35274,-1.22846 -0.74401,-0.40014 -1.69139,-1.00169 -2.10528,-1.33678 -0.42993,-0.34807 -1.4463,-0.73827 -2.37086,-0.91021 -1.35447,-0.25189 -1.65763,-0.23883 -1.85942,0.0801 -0.1326,0.20958 -0.24292,0.76651 -0.24514,1.23762 -0.003,0.72113 0.17375,0.9696 1.12042,1.57135 0.61847,0.39312 1.5412,0.86564 2.05052,1.05004 0.50933,0.1844 1.60092,0.3405 2.42576,0.34688 z M 83.240532,208.609 c 0.638774,-0.0691 2.811664,-0.12559 4.828646,-0.12559 2.231148,0 3.667238,-0.10205 3.667238,-0.26061 0,-0.14333 -0.357187,-0.84111 -0.79375,-1.55062 -0.436562,-0.7095 -0.79375,-1.48746 -0.79375,-1.7288 0,-0.34073 -0.162612,-0.40337 -0.727604,-0.28027 -0.400182,0.0872 -2.096823,0.57691 -3.770313,1.08826 -1.673489,0.51136 -3.221302,1.07753 -3.439583,1.25815 -0.218281,0.18062 -0.812409,0.49336 -1.320284,0.69497 l -0.923409,0.36657 1.055701,0.33177 c 0.580635,0.18247 1.578334,0.27525 2.217108,0.20617 z m 8.48758,-2.77142 c 0.150088,0 0.272887,-0.42664 0.272887,-0.94809 0,-0.64082 -0.107189,-0.9124 -0.330729,-0.83797 -0.181901,0.0606 -0.370564,0.31556 -0.419252,0.56667 -0.04869,0.2511 -0.02266,0.62819 0.05784,0.83797 0.0805,0.20978 0.269164,0.38142 0.419252,0.38142 z M 32.907399,202.263 c 0.99622,-0.0852 3.001934,-0.26941 4.457142,-0.40932 1.455209,-0.13991 5.027084,-0.43246 7.9375,-0.6501 2.910417,-0.21764 6.303698,-0.50922 7.540625,-0.64795 1.236927,-0.13873 3.915834,-0.38293 5.953125,-0.54268 2.037292,-0.15975 6.918854,-0.57372 10.847917,-0.91993 3.929062,-0.34621 8.751093,-0.75984 10.715625,-0.91918 1.964531,-0.15934 4.881562,-0.40492 6.482291,-0.54574 1.60073,-0.14081 5.172604,-0.44695 7.937498,-0.68032 2.764902,-0.23336 5.126762,-0.48519 5.248578,-0.55961 0.12182,-0.0744 0.111,-0.24581 -0.024,-0.38084 -0.150966,-0.15097 -2.477846,-0.0415 -6.042328,0.2842 -3.188239,0.29135 -8.058988,0.7145 -10.823884,0.94033 -2.764896,0.22584 -6.098646,0.52549 -7.408334,0.6659 -1.309687,0.14041 -4.048125,0.38097 -6.085416,0.53458 -2.037292,0.1536 -4.894792,0.38982 -6.35,0.52493 -1.455209,0.13511 -4.193646,0.36824 -6.085417,0.51808 -1.891771,0.14984 -6.951927,0.57667 -11.244791,0.94851 -4.292865,0.37184 -9.343622,0.81931 -11.223904,0.99438 -2.320178,0.21601 -3.454815,0.42777 -3.531101,0.65899 -0.08756,0.2654 0.287912,0.30646 1.698904,0.18577 z m 65.509745,-0.22989 c 0.61847,-0.0857 4.101036,-0.22762 7.739066,-0.31532 3.63802,-0.0877 7.68614,-0.0474 8.99583,0.0894 1.30969,0.13689 2.42262,0.21499 2.47318,0.17355 0.0506,-0.0414 -0.30527,-0.73942 -0.79074,-1.55107 -0.48547,-0.81165 -1.06262,-1.5267 -1.28256,-1.589 -0.21993,-0.0623 -2.06676,-0.15015 -4.10405,-0.19522 -3.3822,-0.0748 -3.93414,-0.0181 -6.35,0.65305 -1.45521,0.40424 -3.57328,0.80875 -4.70684,0.89891 -1.856766,0.14767 -2.112396,0.23609 -2.579676,0.89234 -0.28528,0.40063 -0.51869,0.81184 -0.51869,0.91381 0,0.10196 0.50602,0.11524 1.12448,0.0295 z m 5.791586,-3.49439 c 0.12523,-0.0774 0.22768,-0.43134 0.22768,-0.78655 0,-0.3977 -0.15249,-0.64585 -0.39687,-0.64585 -0.23939,0 -0.39688,0.24499 -0.39688,0.61736 0,0.33955 0.0761,0.6935 0.1692,0.78656 0.0931,0.0931 0.27165,0.10588 0.39687,0.0285 z m -2.94732,-2.22615 c 0.14552,0 0.26459,-0.11906 0.26459,-0.26458 0,-0.14552 -0.11907,-0.26458 -0.26459,-0.26458 -0.14552,0 -0.26458,0.11906 -0.26458,0.26458 0,0.14552 0.11906,0.26458 0.26458,0.26458 z m 2.84427,-0.28318 c 0.94562,-0.014 1.12576,-0.0749 0.72761,-0.24598 -0.29104,-0.12507 -0.85659,-0.23576 -1.25677,-0.24599 -0.40018,-0.0102 -0.72761,0.10047 -0.72761,0.24599 0,0.14552 0.56555,0.25621 1.25677,0.24598 z m 2.71198,-0.24598 c 0.14552,0 0.26459,-0.11907 0.26459,-0.26459 0,-0.14552 -0.11907,-0.26458 -0.26459,-0.26458 -0.14552,0 -0.26458,0.11906 -0.26458,0.26458 0,0.14552 0.11906,0.26459 0.26458,0.26459 z m 3.10886,-0.12594 c 0.83674,-0.0837 4.14073,-0.38464 7.34219,-0.66871 3.20145,-0.28407 7.30911,-0.63542 9.12812,-0.78078 1.81901,-0.14536 7.65307,-0.62385 12.96458,-1.06331 5.31151,-0.43945 10.01448,-0.85675 10.45105,-0.92732 0.43656,-0.0706 3.23453,-0.31214 6.2177,-0.53683 2.98318,-0.22469 7.09084,-0.57657 9.12813,-0.78196 2.03729,-0.20539 5.4901,-0.51114 7.67292,-0.67945 2.18281,-0.16831 4.13748,-0.35831 4.34372,-0.42224 0.25197,-0.0781 0.28748,-0.20371 0.10826,-0.38294 -0.17922,-0.17922 -2.21156,-0.0904 -6.19581,0.27076 -3.261,0.29561 -7.41737,0.65977 -9.23638,0.80924 -1.81901,0.14947 -4.67651,0.39089 -6.35,0.53649 -1.67349,0.1456 -5.78115,0.49784 -9.12813,0.78276 -3.34698,0.28491 -7.51416,0.64327 -9.26041,0.79635 -1.74625,0.15308 -4.54422,0.39047 -6.21771,0.52753 -1.67349,0.13705 -5.66209,0.48466 -8.86354,0.77246 -3.20146,0.2878 -7.57701,0.67125 -9.72344,0.85212 -2.95153,0.2487 -3.90261,0.41647 -3.90261,0.68844 0,0.27904 0.34085,0.3255 1.52136,0.20739 z m -8.92969,-1.03283 c 1.38245,-0.0952 3.79737,-0.24871 5.3665,-0.34104 1.88656,-0.11102 2.8215,-0.26633 2.76011,-0.45852 -0.0511,-0.15985 -0.68005,-0.62146 -1.39775,-1.02581 -1.17371,-0.66127 -1.51771,-0.72732 -3.42157,-0.65701 -1.60047,0.0591 -2.42221,0.23323 -3.36955,0.71399 -0.68909,0.3497 -1.522526,0.92961 -1.852076,1.28869 l -0.5992,0.65286 z m 97.89759,-4.1329 c 5.63758,0 7.14199,-0.0716 7.14199,-0.33968 0,-0.18682 0.51974,-1.943 1.15496,-3.9026 0.63523,-1.95961 1.24328,-3.77129 1.35123,-4.02595 0.18334,-0.43253 -0.17097,-0.46302 -5.38153,-0.46302 h -5.5778 l -1.73612,2.57969 c -0.95486,1.41883 -2.2668,3.38336 -2.91542,4.36562 l -1.1793,1.78594 z"
       id="path7" /></g></svg>
